<?xml version="1.0" encoding="iso-8859-1"?>
<!-- Uploaded to: SVG Repo, www.svgrepo.com, Generator: SVG Repo Mixer Tools -->
<svg fill="#000000" height="800px" width="800px" version="1.1" id="Layer_1" xmlns="http://www.w3.org/2000/svg" xmlns:xlink="http://www.w3.org/1999/xlink" 
	 viewBox="0 0 512 512" xml:space="preserve">
<g>
	<g>
		<path d="M208.129,213.28c-15.76,0-28.581,12.821-28.581,28.581s12.82,28.581,28.581,28.581c15.76,0,28.582-12.821,28.582-28.581
			S223.888,213.28,208.129,213.28z M208.129,250.041c-4.511,0-8.181-3.671-8.181-8.181c0-4.51,3.67-8.181,8.181-8.181
			c4.511,0,8.182,3.671,8.182,8.181C216.311,246.37,212.64,250.041,208.129,250.041z"/>
	</g>
</g>
<g>
	<g>
		<path d="M60.205,65.355c-15.76,0-28.582,12.822-28.582,28.582s12.822,28.581,28.582,28.581s28.581-12.821,28.581-28.581
			S75.964,65.355,60.205,65.355z M60.205,102.119c-4.511,0-8.182-3.671-8.182-8.181c0-4.511,3.671-8.182,8.182-8.182
			s8.181,3.671,8.181,8.182C68.387,98.448,64.716,102.119,60.205,102.119z"/>
	</g>
</g>
<g>
	<g>
		<path d="M501.8,22.828h-26.781V11.274c0-5.633-4.566-10.2-10.2-10.2c-5.633,0-10.2,4.566-10.2,10.2v11.554h-24.606
			c-5.633,0-10.2,4.566-10.2,10.2v43.096h-14.498c-4.635-19.917-22.518-34.806-43.825-34.806h-78.313c-5.633,0-10.2,4.566-10.2,10.2
			v24.606H125.266l-25.255-25.256c-22.849-22.847-60.027-22.847-82.875,0c-22.848,22.848-22.848,60.027,0,82.875L117.5,234.107
			c-2.148,8.156-3.25,16.57-3.25,25.084v122.936h-3.485c-5.633,0-10.2,4.566-10.2,10.2v28.373c0,4.913,3.475,9.012,8.1,9.981
			l-10.264,21.288h-24.15c-5.633,0-10.2,4.566-10.2,10.2v38.558c0,5.633,4.566,10.2,10.2,10.2h276.456c5.633,0,10.2-4.566,10.2-10.2
			v-38.558c0-5.633-4.566-10.2-10.2-10.2h-24.15l-10.263-21.287c4.626-0.968,8.101-5.068,8.101-9.981v-28.373
			c0-5.633-4.566-10.2-10.2-10.2h-3.486V259.191h-0.001c0-54.164-44.065-98.229-98.229-98.229c-0.781,0-1.565,0.01-2.345,0.03
			l-64.469-64.469h127.312v24.606c0,5.633,4.566,10.2,10.2,10.2h78.313c21.307,0,39.19-14.889,43.825-34.806h14.498v43.096
			c0,5.633,4.566,10.2,10.2,10.2h24.606v49.622c0,5.633,4.566,10.2,10.2,10.2c5.633,0,10.2-4.566,10.2-10.2v-49.622H501.8
			c5.633,0,10.2-4.566,10.2-10.2V33.028C512,27.394,507.433,22.828,501.8,22.828z M340.507,472.368v18.159H84.451v-18.159H340.507z
			 M121.048,451.968l10.158-21.069h162.545l10.159,21.069H121.048z M303.994,410.499h-183.03v-7.973h183.03V410.499z
			 M290.309,382.126H134.65v-18.159h155.659V382.126z M290.308,259.191v84.377H134.65v-84.377c0-2.535,0.136-5.055,0.376-7.558
			l32.085,32.085c11.425,11.424,26.432,17.137,41.438,17.137c15.006,0,30.013-5.713,41.438-17.137
			c22.848-22.848,22.848-60.027,0-82.875l-16.608-16.608C266.172,193.39,290.308,223.515,290.308,259.191z M235.56,215.268
			c14.896,14.895,14.896,39.13,0,54.025c-14.895,14.896-39.13,14.896-54.025,0L31.561,119.318c-14.895-14.895-14.895-39.13,0-54.025
			c7.447-7.448,17.23-11.172,27.012-11.172c9.782,0,19.565,3.724,27.012,11.172L235.56,215.268z M361.49,110.929h-68.113V61.717
			h68.113c13.568,0,24.606,11.038,24.606,24.606C386.096,99.89,375.058,110.929,361.49,110.929z M491.6,129.419h-51.386V43.227
			H491.6V129.419z"/>
	</g>
</g>
<g>
	<g>
		<path d="M190.78,185.549l-43.861-43.861c-3.983-3.983-10.441-3.983-14.425,0c-3.983,3.983-3.983,10.441,0,14.426l43.861,43.861
			c1.992,1.992,4.602,2.987,7.212,2.987c2.61,0,5.222-0.997,7.213-2.987C194.763,195.991,194.763,189.533,190.78,185.549z"/>
	</g>
</g>
<g>
	<g>
		<path d="M124.48,119.249l-5.098-5.099c-3.983-3.983-10.441-3.983-14.425,0c-3.983,3.983-3.983,10.441,0,14.426l5.099,5.099
			c1.992,1.992,4.602,2.988,7.212,2.988s5.221-0.996,7.212-2.988C128.463,129.692,128.463,123.233,124.48,119.249z"/>
	</g>
</g>
</svg>